<?xml version="1.0" encoding="iso-8859-1"?>
<!-- Generator: Adobe Illustrator 19.0.0, SVG Export Plug-In . SVG Version: 6.00 Build 0)  -->
<svg version="1.1" id="Capa_1" xmlns="http://www.w3.org/2000/svg" xmlns:xlink="http://www.w3.org/1999/xlink" x="0px" y="0px"
	 viewBox="0 0 511.999 511.999" style="enable-background:new 0 0 511.999 511.999;" xml:space="preserve">
<path style="fill:#E5E5E5;" d="M266.257,10.206c-6.328-3.653-14.125-3.653-20.452,0L48.305,124.232
	c-4.414,2.549-7.642,6.609-9.192,11.31c1.551,4.703,4.777,8.763,9.192,11.31c212.361,122.605,199.902,116.767,207.726,116.767
	c3.531,0,7.064-0.914,10.227-2.741l197.499-114.026c4.414-2.547,7.642-6.606,9.192-11.31c-1.551-4.7-4.777-8.761-9.192-11.31
	L266.257,10.206z"/>
<path style="fill:#EFEFEF;" d="M463.757,124.232L266.257,10.206c-6.328-3.653-14.125-3.653-20.452,0L119.812,82.948
	c-0.092,1.532-0.155,3.069-0.155,4.616c0,68.199,90.826,123.486,202.867,123.486c11.184,0,22.151-0.56,32.842-1.619l108.391-62.579
	c4.414-2.547,7.642-6.606,9.192-11.31C471.398,130.841,468.171,126.782,463.757,124.232z"/>
<path style="fill:#C4C4C4;" d="M472.948,135.542c-1.551,4.703-4.777,8.763-9.192,11.31
	C251.395,269.458,263.854,263.619,256.031,263.619v240.857c7.738,0-4.854,5.967,207.726-116.765
	c6.328-3.654,10.226-10.405,10.226-17.713V141.945C473.983,139.736,473.621,137.58,472.948,135.542z"/>
<path style="fill:#D1CFCF;" d="M48.305,146.851c-4.414-2.547-7.642-6.606-9.192-11.31c-1.477,4.477-1.033-12.549-1.033,234.456
	c0,7.309,3.898,14.059,10.226,17.713c212.361,122.605,199.896,116.765,207.725,116.765V263.619
	C248.293,263.619,260.884,269.583,48.305,146.851z"/>
<g>
	<ellipse style="fill:#C44137;" cx="255.951" cy="137.862" rx="26.082" ry="17.784"/>
	
		<ellipse transform="matrix(0.7427 0.6696 -0.6696 0.7427 191.9576 -1.8453)" style="fill:#C44137;" cx="98.38" cy="248.869" rx="22.879" ry="19.131"/>
	
		<ellipse transform="matrix(0.7428 0.6695 -0.6695 0.7428 255.3457 -13.7714)" style="fill:#C44137;" cx="145.597" cy="325.462" rx="22.877" ry="19.131"/>
	
		<ellipse transform="matrix(0.7428 0.6695 -0.6695 0.7428 318.7566 -25.7006)" style="fill:#C44137;" cx="192.829" cy="402.031" rx="22.877" ry="19.131"/>
</g>
<path style="fill:#BABABA;" d="M358.142,207.827c-99.227,57.289-94.573,55.792-102.111,55.792v240.857
	c7.149,0,6.947-0.846,47.181-24.075C273.695,383.808,295.794,260.708,358.142,207.827z"/>
<g>
	
		<ellipse transform="matrix(0.7427 -0.6696 0.6696 0.7427 -60.2113 341.0445)" style="fill:#C44137;" cx="413.691" cy="248.874" rx="22.879" ry="19.131"/>
	
		<ellipse transform="matrix(0.7428 -0.6696 0.6696 0.7428 -121.4177 291.9319)" style="fill:#C44137;" cx="319.216" cy="303.981" rx="22.878" ry="19.133"/>
	
		<ellipse transform="matrix(0.7428 -0.6695 0.6695 0.7428 -187.0454 317.0906)" style="fill:#C44137;" cx="319.19" cy="401.996" rx="22.877" ry="19.131"/>
	
		<ellipse transform="matrix(0.7428 -0.6696 0.6696 0.7428 -125.8886 366.2422)" style="fill:#C44137;" cx="413.69" cy="346.955" rx="22.879" ry="19.133"/>
</g>
<path d="M480.031,133.191c-2.159-6.522-6.615-12.001-12.555-15.431L335.142,41.359c-3.589-2.07-8.176-0.844-10.246,2.745
	c-2.071,3.587-0.842,8.175,2.745,10.246c142.381,82.202,134.628,76.846,137.107,81.21c-2.783,4.914,9.093-3.185-202.274,118.847
	c-3.932,2.27-9.017,2.272-12.95-0.001C39.929,133.397,49.92,140.273,47.251,135.559c2.482-4.369-11.345,4.498,202.275-118.834
	c3.992-2.307,8.956-2.307,12.95,0l43.617,25.183c3.585,2.068,8.176,0.842,10.246-2.745c2.071-3.587,0.842-8.175-2.745-10.246
	L269.976,3.735c-8.622-4.979-19.333-4.979-27.952,0L44.523,117.76c-8.913,5.145-13.976,14.555-13.976,24.208v156.389
	c0,4.143,3.357,7.501,7.501,7.501s7.501-3.357,7.501-7.501V153.963l196.473,113.433c0.521,0.301,1.052,0.584,1.59,0.85
	c0.164,0.081,0.334,0.15,0.499,0.228c0.377,0.177,0.753,0.355,1.137,0.515c0.209,0.087,0.422,0.161,0.633,0.242
	c0.347,0.135,0.693,0.272,1.045,0.393c0.231,0.079,0.465,0.145,0.698,0.218c0.292,0.092,0.581,0.192,0.875,0.274v224.555
	L52.025,381.24c-3.994-2.308-6.477-6.607-6.477-11.219v-46.329c0-4.143-3.357-7.501-7.501-7.501s-7.501,3.357-7.501,7.501v46.329
	c0,9.953,5.354,19.23,13.976,24.209l197.498,114.024c4.24,2.45,9.074,3.745,13.978,3.745c4.902,0,9.736-1.295,13.977-3.744
	l197.5-114.026c8.62-4.978,13.975-14.254,13.975-24.208V141.969C481.451,136.821,479.894,132.778,480.031,133.191z M459.975,381.24
	L263.5,494.672V270.116c6.815-1.899,2.885-0.646,202.951-116.154v216.059C466.45,374.634,463.969,378.932,459.975,381.24z"/>
<path d="M222.334,137.887c0,14.179,14.752,25.285,33.585,25.285s33.585-11.106,33.585-25.285c0-14.179-14.752-25.285-33.585-25.285
	S222.334,123.707,222.334,137.887z M274.502,137.887c0,4.854-7.947,10.284-18.584,10.284s-18.584-5.429-18.584-10.284
	c0-4.854,7.947-10.284,18.584-10.284C266.556,127.603,274.502,133.031,274.502,137.887z"/>
<path d="M75.774,228.569c-9.833,10.91-7.711,28.909,4.73,40.124l-0.001-0.001c12.457,11.23,30.578,11.452,40.397,0.558
	c4.936-5.475,7.046-12.795,5.938-20.61C123.335,223.893,91.486,211.149,75.774,228.569z M90.549,257.551
	C90.548,257.551,90.548,257.551,90.549,257.551c-6.192-5.58-7.855-14.253-3.633-18.938c1.863-2.067,4.618-3.073,7.648-3.073
	c3.833,0,8.105,1.612,11.564,4.729c3.234,2.915,5.314,6.635,5.857,10.473C113.678,262.678,99.983,266.059,90.549,257.551z"/>
<path d="M163.403,305.684c-5.844-5.267-13.128-8.318-20.513-8.593c-7.889-0.286-14.949,2.562-19.885,8.037
	c-10.134,11.241-7.437,29.157,4.729,40.124c20.384,18.37,49.94,5.41,46.335-20.054C173.036,317.882,169.247,310.952,163.403,305.684
	z M137.78,334.11c-6.304-5.68-7.838-14.271-3.631-18.937c2.056-2.281,5.105-3.212,8.187-3.09c3.874,0.144,7.79,1.828,11.024,4.744
	c3.234,2.915,5.314,6.636,5.858,10.475C160.897,339.159,147.311,342.701,137.78,334.11z"/>
<path d="M174.968,421.81c5.89,5.309,13.548,8.613,21.61,8.613c7.443-0.001,14.081-2.838,18.786-8.058
	c4.936-5.474,7.045-12.793,5.938-20.609c-3.51-24.808-35.386-37.458-51.064-20.071C160.105,392.925,162.797,410.839,174.968,421.81z
	 M189.029,388.656c8.097,0,16.253,6.952,17.42,15.202c0.473,3.34-0.318,6.346-2.228,8.463c-4.237,4.703-12.956,3.983-19.21-1.653
	c0-0.001,0-0.001,0-0.001C175.675,402.251,177.451,388.656,189.029,388.656z"/>
<path d="M409.903,277.272c7.436,0,15.243-2.868,21.576-8.578c12.441-11.214,14.564-29.213,4.729-40.125
	c-9.834-10.905-27.955-10.654-40.397,0.559c-5.843,5.267-9.632,12.197-10.668,19.514c-1.106,7.815,1.003,15.135,5.938,20.611
	C395.911,274.606,402.734,277.272,409.903,277.272z M399.998,250.743c0.543-3.838,2.623-7.558,5.857-10.474
	c3.459-3.117,7.731-4.729,11.564-4.729c3.027,0,5.782,1.007,7.647,3.072c4.222,4.686,2.56,13.358-3.631,18.939
	c0,0.001,0,0.001-0.001,0.001c-6.189,5.582-14.987,6.337-19.21,1.655C400.315,257.088,399.524,254.083,399.998,250.743z"/>
<path d="M347.684,304.248c1.106-7.816-1.002-15.135-5.938-20.609c-9.831-10.907-27.954-10.661-40.398,0.556
	c-12.172,10.971-14.859,28.888-4.729,40.122C312.455,341.885,344.214,328.772,347.684,304.248z M311.392,295.337
	c6.19-5.578,14.988-6.339,19.212-1.653c4.204,4.662,2.673,13.253-3.632,18.936c-6.287,5.668-14.991,6.333-19.212,1.653
	C303.549,309.602,305.102,301.007,311.392,295.337z"/>
<path d="M290.681,401.756c-3.542,25.015,25.586,38.755,46.334,20.054c5.843-5.267,9.633-12.197,10.669-19.515
	c1.106-7.816-1.003-15.135-5.938-20.609C326.076,364.304,294.193,376.942,290.681,401.756z M326.973,410.666L326.973,410.666
	c-6.362,5.734-15.034,6.287-19.211,1.653c-4.206-4.664-2.669-13.256,3.63-18.936c6.197-5.582,14.994-6.336,19.213-1.653
	C334.811,396.397,333.273,404.987,326.973,410.666z"/>
<path d="M395.811,327.172c-12.44,11.216-14.562,29.215-4.728,40.123c4.705,5.22,11.343,8.058,18.786,8.058
	c0.364,0,0.731-0.007,1.1-0.021c15.267-0.565,29.035-12.966,31.18-28.106C445.743,321.851,416.2,308.801,395.811,327.172z
	 M421.435,355.596L421.435,355.596c-6.42,5.786-15.073,6.241-19.211,1.655c-6.925-7.682,2.255-23.666,15.194-23.666
	C429.049,333.586,430.734,347.218,421.435,355.596z"/>
<g>
</g>
<g>
</g>
<g>
</g>
<g>
</g>
<g>
</g>
<g>
</g>
<g>
</g>
<g>
</g>
<g>
</g>
<g>
</g>
<g>
</g>
<g>
</g>
<g>
</g>
<g>
</g>
<g>
</g>
</svg>
